<svg width="1365" height="1294" viewBox="0 0 1365 1294" fill="none" xmlns="http://www.w3.org/2000/svg">
<path d="M600 1294C440.87 1294 288.258 1230.79 175.736 1118.26C63.2141 1005.74 1.01164e-05 853.13 0 694C-1.01164e-05 534.87 63.214 382.258 175.736 269.736C288.258 157.214 440.87 94 600 94V183.337C464.564 183.337 334.675 237.139 238.907 332.907C143.139 428.675 91.5 558.564 91.5 694C91.5 829.436 143.139 959.325 238.907 1055.09C334.675 1150.86 464.564 1204.66 600 1204.66V1294Z" fill="black"/>
<path d="M630 94C789.13 94 941.742 157.214 1054.26 269.736C1166.79 382.258 1230 534.87 1230 694C1230 853.13 1166.79 1005.74 1054.26 1118.26C941.742 1230.79 789.13 1294 630 1294V1204.66C765.436 1204.66 895.325 1150.86 991.093 1055.09C1086.86 959.325 1138.5 829.436 1138.5 694C1138.5 558.564 1086.86 428.675 991.093 332.907C895.325 237.139 765.436 183.337 630 183.337V94Z" fill="black"/>
<path d="M350 679H583V709H380C363.431 709 350 695.569 350 679V679Z" fill="black"/>
<path d="M350 644C350 635.716 356.716 629 365 629V629C373.284 629 380 635.716 380 644V679H350V644Z" fill="#0A0000"/>
<path d="M553 644C553 635.716 559.716 629 568 629V629C576.284 629 583 635.716 583 644V679H553V644Z" fill="#0A0000"/>
<path d="M583 744C583 752.284 576.284 759 568 759V759C559.716 759 553 752.284 553 744V709H583V744Z" fill="#0A0000"/>
<path d="M879 709H646V679H849C865.569 679 879 692.431 879 709V709Z" fill="black"/>
<path d="M879 744C879 752.284 872.284 759 864 759V759C855.716 759 849 752.284 849 744V709H879V744Z" fill="#0A0000"/>
<path d="M676 744C676 752.284 669.284 759 661 759V759C652.716 759 646 752.284 646 744V709H676V744Z" fill="#0A0000"/>
<path d="M646 644C646 635.716 652.716 629 661 629V629C669.284 629 676 635.716 676 644V679H646V644Z" fill="#0A0000"/>
<path d="M801 644C801 635.716 807.716 629 816 629V629C824.284 629 831 635.716 831 644V679H801V644Z" fill="#0A0000"/>
<rect x="600" y="594" width="30" height="70" rx="15" fill="#0A0000"/>
<path d="M1065 694C1065 942.528 863.528 1144 615 1144C366.472 1144 165 942.528 165 694C165 445.472 366.472 244 615 244C863.528 244 1065 445.472 1065 694ZM300 694C300 867.97 441.03 1009 615 1009C788.97 1009 930 867.97 930 694C930 520.03 788.97 379 615 379C441.03 379 300 520.03 300 694Z" fill="black"/>
<path d="M1365 150C1365 232.843 1297.84 300 1215 300C1132.16 300 1065 232.843 1065 150C1065 67.1573 1132.16 0 1215 0C1297.84 0 1365 67.1573 1365 150ZM1110 150C1110 207.99 1157.01 255 1215 255C1272.99 255 1320 207.99 1320 150C1320 92.0101 1272.99 45 1215 45C1157.01 45 1110 92.0101 1110 150Z" fill="black"/>
</svg>
